#tb 0: 1/25
#media_type 0: video
#codec_id 0: rawvideo
#dimensions 0: 176x144
#sar 0: 0/1
0,          0,          0,        1,    38016, 0x5d9514e3
0,          1,          1,        1,    38016, 0xf5e8155c
0,          2,          2,        1,    38016, 0xc0a5f88b
0,          3,          3,        1,    38016, 0x421d2610
0,          4,          4,        1,    38016, 0x971838af
0,          5,          5,        1,    38016, 0xbd645dfc
0,          6,          6,        1,    38016, 0xaab5626a
0,          7,          7,        1,    38016, 0xc8fc9b6b
0,          8,          8,        1,    38016, 0x8be593f4
0,          9,          9,        1,    38016, 0x6560c0f4
0,         10,         10,        1,    38016, 0x29009b56
0,         11,         11,        1,    38016, 0x20b4bd2a
0,         12,         12,        1,    38016, 0xe8a7a51e
0,         13,         13,        1,    38016, 0x8c5e906a
0,         14,         14,        1,    38016, 0x15496f1e
0,         15,         15,        1,    38016, 0xdc788399
0,         16,         16,        1,    38016, 0x2b1e89b2
0,         17,         17,        1,    38016, 0xe9fda9bd
0,         18,         18,        1,    38016, 0x7c319f69
0,         19,         19,        1,    38016, 0x2921cbc4
0,         20,         20,        1,    38016, 0xb4fab1e2
0,         21,         21,        1,    38016, 0x6af6ba57
0,         22,         22,        1,    38016, 0xb36e7df5
0,         23,         23,        1,    38016, 0x57517aec
0,         24,         24,        1,    38016, 0x9f5f331a
0,         25,         25,        1,    38016, 0xafde3f8a
0,         26,         26,        1,    38016, 0x97f32b54
0,         27,         27,        1,    38016, 0x0c194bf7
0,         28,         28,        1,    38016, 0x58a054c2
0,         29,         29,        1,    38016, 0x6a637e5f
0,         30,         30,        1,    38016, 0x8b2d63d0
0,         31,         31,        1,    38016, 0x521772c5
0,         32,         32,        1,    38016, 0xae555677
